# xmcd
# 
# Track frame offsets:
#     187
#     27525
#     53962
#     73075
#     104212
#     128350
#     148050
#     171837
#     190512
#     219825
# 
# Disc length: 3537
# 
# Revision: 1
# Processed by: cddbd v1.5.2PL0 Copyright (c) Steve Scherf et al.
# Submitted via: BonkEnc v1.0.8
# 
DISCID=930dcf0a
DTITLE=佐藤允彦 ベルエアー・プロジェクト - Passagio
DYEAR=1991
DGENRE=Fusion
TTITLE0=An Old Castle
TTITLE1=Nuit d'Etoiles
TTITLE2=The Great Gate Of Kiev
TTITLE3=Prelude op.51 No.2
TTITLE4=2eme Gymnopedie
TTITLE5=Key Flute
TTITLE6=Oldette
TTITLE7=Madacave
TTITLE8=Liebestod
TTITLE9=Mt.Magritte
EXTD=YEAR: 1991
EXTT0=
EXTT1=
EXTT2=
EXTT3=
EXTT4=
EXTT5=
EXTT6=
EXTT7=
EXTT8=
EXTT9=
PLAYORDER=
